<mxfile host="65bd71144e">
    <diagram id="fdcGJLfnFhQPQRy7Jr3l" name="ページ1">
        <mxGraphModel dx="784" dy="411" grid="0" gridSize="10" guides="1" tooltips="1" connect="1" arrows="1" fold="1" page="1" pageScale="1" pageWidth="827" pageHeight="1169" background="#ffffff" math="0" shadow="0">
            <root>
                <mxCell id="0"/>
                <mxCell id="1" parent="0"/>
                <mxCell id="2" value="Shop" style="shape=table;startSize=29;container=1;collapsible=1;childLayout=tableLayout;fixedRows=1;rowLines=0;fontStyle=1;align=center;resizeLast=1;fillColor=default;" parent="1" vertex="1">
                    <mxGeometry x="742" y="64" width="320.48438517252606" height="265.96775817871094" as="geometry">
                        <mxRectangle x="25" y="132" width="65" height="30" as="alternateBounds"/>
                    </mxGeometry>
                </mxCell>
                <mxCell id="53" style="shape=tableRow;horizontal=0;startSize=0;swimlaneHead=0;swimlaneBody=0;fillColor=none;collapsible=0;dropTarget=0;points=[[0,0.5],[1,0.5]];portConstraint=eastwest;top=0;left=0;right=0;bottom=0;" parent="2" vertex="1">
                    <mxGeometry y="29" width="320.48438517252606" height="30" as="geometry"/>
                </mxCell>
                <mxCell id="54" value="id" style="shape=partialRectangle;connectable=0;fillColor=none;top=0;left=0;bottom=0;right=0;editable=1;overflow=hidden;strokeColor=default;fontColor=#000000;" parent="53" vertex="1">
                    <mxGeometry width="88.53992716471355" height="30" as="geometry">
                        <mxRectangle width="88.53992716471355" height="30" as="alternateBounds"/>
                    </mxGeometry>
                </mxCell>
                <mxCell id="55" value="bigint" style="shape=partialRectangle;connectable=0;fillColor=none;top=0;left=0;bottom=0;right=0;align=left;spacingLeft=6;overflow=hidden;strokeColor=default;fontColor=#000000;" parent="53" vertex="1">
                    <mxGeometry x="88.53992716471355" width="91.46007283528645" height="30" as="geometry">
                        <mxRectangle width="91.46007283528645" height="30" as="alternateBounds"/>
                    </mxGeometry>
                </mxCell>
                <mxCell id="56" value="AUTO_INCREMENT&#10;PRIMARY" style="shape=partialRectangle;connectable=0;fillColor=none;top=0;left=0;bottom=0;right=0;align=left;spacingLeft=6;overflow=hidden;strokeColor=default;fontColor=#000000;" parent="53" vertex="1">
                    <mxGeometry x="180" width="140.48438517252606" height="30" as="geometry">
                        <mxRectangle width="140.48438517252606" height="30" as="alternateBounds"/>
                    </mxGeometry>
                </mxCell>
                <mxCell id="6" value="" style="shape=tableRow;horizontal=0;startSize=0;swimlaneHead=0;swimlaneBody=0;fillColor=none;collapsible=0;dropTarget=0;points=[[0,0.5],[1,0.5]];portConstraint=eastwest;top=0;left=0;right=0;bottom=0;" parent="2" vertex="1">
                    <mxGeometry y="59" width="320.48438517252606" height="23" as="geometry"/>
                </mxCell>
                <mxCell id="7" value="name" style="shape=partialRectangle;connectable=0;fillColor=none;top=0;left=0;bottom=0;right=0;editable=1;overflow=hidden;strokeColor=default;fontColor=#000000;" parent="6" vertex="1">
                    <mxGeometry width="88.53992716471355" height="23" as="geometry">
                        <mxRectangle width="88.53992716471355" height="23" as="alternateBounds"/>
                    </mxGeometry>
                </mxCell>
                <mxCell id="8" value="varchar" style="shape=partialRectangle;connectable=0;fillColor=none;top=0;left=0;bottom=0;right=0;align=left;spacingLeft=6;overflow=hidden;strokeColor=default;fontColor=#000000;" parent="6" vertex="1">
                    <mxGeometry x="88.53992716471355" width="91.46007283528645" height="23" as="geometry">
                        <mxRectangle width="91.46007283528645" height="23" as="alternateBounds"/>
                    </mxGeometry>
                </mxCell>
                <mxCell id="45" style="shape=partialRectangle;connectable=0;fillColor=none;top=0;left=0;bottom=0;right=0;align=left;spacingLeft=6;overflow=hidden;strokeColor=default;fontColor=#000000;" parent="6" vertex="1">
                    <mxGeometry x="180" width="140.48438517252606" height="23" as="geometry">
                        <mxRectangle width="140.48438517252606" height="23" as="alternateBounds"/>
                    </mxGeometry>
                </mxCell>
                <mxCell id="9" value="" style="shape=tableRow;horizontal=0;startSize=0;swimlaneHead=0;swimlaneBody=0;fillColor=none;collapsible=0;dropTarget=0;points=[[0,0.5],[1,0.5]];portConstraint=eastwest;top=0;left=0;right=0;bottom=0;" parent="2" vertex="1">
                    <mxGeometry y="82" width="320.48438517252606" height="20" as="geometry"/>
                </mxCell>
                <mxCell id="10" value="location" style="shape=partialRectangle;connectable=0;fillColor=none;top=0;left=0;bottom=0;right=0;editable=1;overflow=hidden;strokeColor=default;fontColor=#000000;" parent="9" vertex="1">
                    <mxGeometry width="88.53992716471355" height="20" as="geometry">
                        <mxRectangle width="88.53992716471355" height="20" as="alternateBounds"/>
                    </mxGeometry>
                </mxCell>
                <mxCell id="11" value="varchar" style="shape=partialRectangle;connectable=0;fillColor=none;top=0;left=0;bottom=0;right=0;align=left;spacingLeft=6;overflow=hidden;strokeColor=default;fontColor=#000000;" parent="9" vertex="1">
                    <mxGeometry x="88.53992716471355" width="91.46007283528645" height="20" as="geometry">
                        <mxRectangle width="91.46007283528645" height="20" as="alternateBounds"/>
                    </mxGeometry>
                </mxCell>
                <mxCell id="46" style="shape=partialRectangle;connectable=0;fillColor=none;top=0;left=0;bottom=0;right=0;align=left;spacingLeft=6;overflow=hidden;strokeColor=default;fontColor=#000000;" parent="9" vertex="1">
                    <mxGeometry x="180" width="140.48438517252606" height="20" as="geometry">
                        <mxRectangle width="140.48438517252606" height="20" as="alternateBounds"/>
                    </mxGeometry>
                </mxCell>
                <mxCell id="12" value="" style="shape=tableRow;horizontal=0;startSize=0;swimlaneHead=0;swimlaneBody=0;fillColor=none;collapsible=0;dropTarget=0;points=[[0,0.5],[1,0.5]];portConstraint=eastwest;top=0;left=0;right=0;bottom=0;" parent="2" vertex="1">
                    <mxGeometry y="102" width="320.48438517252606" height="35" as="geometry"/>
                </mxCell>
                <mxCell id="13" value="description" style="shape=partialRectangle;connectable=0;fillColor=none;top=0;left=0;bottom=0;right=0;editable=1;overflow=hidden;strokeColor=default;fontColor=#000000;" parent="12" vertex="1">
                    <mxGeometry width="88.53992716471355" height="35" as="geometry">
                        <mxRectangle width="88.53992716471355" height="35" as="alternateBounds"/>
                    </mxGeometry>
                </mxCell>
                <mxCell id="14" value="text" style="shape=partialRectangle;connectable=0;fillColor=none;top=0;left=0;bottom=0;right=0;align=left;spacingLeft=6;overflow=hidden;strokeColor=default;fontColor=#000000;" parent="12" vertex="1">
                    <mxGeometry x="88.53992716471355" width="91.46007283528645" height="35" as="geometry">
                        <mxRectangle width="91.46007283528645" height="35" as="alternateBounds"/>
                    </mxGeometry>
                </mxCell>
                <mxCell id="47" value="nullable" style="shape=partialRectangle;connectable=0;fillColor=none;top=0;left=0;bottom=0;right=0;align=left;spacingLeft=6;overflow=hidden;strokeColor=default;fontColor=#000000;" parent="12" vertex="1">
                    <mxGeometry x="180" width="140.48438517252606" height="35" as="geometry">
                        <mxRectangle width="140.48438517252606" height="35" as="alternateBounds"/>
                    </mxGeometry>
                </mxCell>
                <mxCell id="15" value="" style="shape=tableRow;horizontal=0;startSize=0;swimlaneHead=0;swimlaneBody=0;fillColor=none;collapsible=0;dropTarget=0;points=[[0,0.5],[1,0.5]];portConstraint=eastwest;top=0;left=0;right=0;bottom=0;" parent="2" vertex="1">
                    <mxGeometry y="137" width="320.48438517252606" height="35" as="geometry"/>
                </mxCell>
                <mxCell id="16" value="created_at" style="shape=partialRectangle;connectable=0;fillColor=none;top=0;left=0;bottom=0;right=0;editable=1;overflow=hidden;strokeColor=default;fontColor=#000000;" parent="15" vertex="1">
                    <mxGeometry width="88.53992716471355" height="35" as="geometry">
                        <mxRectangle width="88.53992716471355" height="35" as="alternateBounds"/>
                    </mxGeometry>
                </mxCell>
                <mxCell id="17" value="timestamp" style="shape=partialRectangle;connectable=0;fillColor=none;top=0;left=0;bottom=0;right=0;align=left;spacingLeft=6;overflow=hidden;strokeColor=default;fontColor=#000000;" parent="15" vertex="1">
                    <mxGeometry x="88.53992716471355" width="91.46007283528645" height="35" as="geometry">
                        <mxRectangle width="91.46007283528645" height="35" as="alternateBounds"/>
                    </mxGeometry>
                </mxCell>
                <mxCell id="48" value="nullable" style="shape=partialRectangle;connectable=0;fillColor=none;top=0;left=0;bottom=0;right=0;align=left;spacingLeft=6;overflow=hidden;strokeColor=default;fontColor=#000000;" parent="15" vertex="1">
                    <mxGeometry x="180" width="140.48438517252606" height="35" as="geometry">
                        <mxRectangle width="140.48438517252606" height="35" as="alternateBounds"/>
                    </mxGeometry>
                </mxCell>
                <mxCell id="35" value="" style="shape=tableRow;horizontal=0;startSize=0;swimlaneHead=0;swimlaneBody=0;fillColor=none;collapsible=0;dropTarget=0;points=[[0,0.5],[1,0.5]];portConstraint=eastwest;top=0;left=0;right=0;bottom=0;" parent="2" vertex="1">
                    <mxGeometry y="172" width="320.48438517252606" height="31" as="geometry"/>
                </mxCell>
                <mxCell id="36" value="updated_at" style="shape=partialRectangle;connectable=0;fillColor=none;top=0;left=0;bottom=0;right=0;editable=1;overflow=hidden;strokeColor=default;fontColor=#000000;" parent="35" vertex="1">
                    <mxGeometry width="88.53992716471355" height="31" as="geometry">
                        <mxRectangle width="88.53992716471355" height="31" as="alternateBounds"/>
                    </mxGeometry>
                </mxCell>
                <mxCell id="37" value="timestamp" style="shape=partialRectangle;connectable=0;fillColor=none;top=0;left=0;bottom=0;right=0;align=left;spacingLeft=6;overflow=hidden;strokeColor=default;fontColor=#000000;" parent="35" vertex="1">
                    <mxGeometry x="88.53992716471355" width="91.46007283528645" height="31" as="geometry">
                        <mxRectangle width="91.46007283528645" height="31" as="alternateBounds"/>
                    </mxGeometry>
                </mxCell>
                <mxCell id="49" value="nullable" style="shape=partialRectangle;connectable=0;fillColor=none;top=0;left=0;bottom=0;right=0;align=left;spacingLeft=6;overflow=hidden;strokeColor=default;fontColor=#000000;" parent="35" vertex="1">
                    <mxGeometry x="180" width="140.48438517252606" height="31" as="geometry">
                        <mxRectangle width="140.48438517252606" height="31" as="alternateBounds"/>
                    </mxGeometry>
                </mxCell>
                <mxCell id="57" value="" style="shape=tableRow;horizontal=0;startSize=0;swimlaneHead=0;swimlaneBody=0;fillColor=none;collapsible=0;dropTarget=0;points=[[0,0.5],[1,0.5]];portConstraint=eastwest;top=0;left=0;right=0;bottom=0;" parent="2" vertex="1">
                    <mxGeometry y="203" width="320.48438517252606" height="31" as="geometry"/>
                </mxCell>
                <mxCell id="58" value="created_by" style="shape=partialRectangle;connectable=0;fillColor=none;top=0;left=0;bottom=0;right=0;editable=1;overflow=hidden;strokeColor=default;fontColor=#000000;" parent="57" vertex="1">
                    <mxGeometry width="88.53992716471355" height="31" as="geometry">
                        <mxRectangle width="88.53992716471355" height="31" as="alternateBounds"/>
                    </mxGeometry>
                </mxCell>
                <mxCell id="59" value="bigint" style="shape=partialRectangle;connectable=0;fillColor=none;top=0;left=0;bottom=0;right=0;align=left;spacingLeft=6;overflow=hidden;strokeColor=default;fontColor=#000000;" parent="57" vertex="1">
                    <mxGeometry x="88.53992716471355" width="91.46007283528645" height="31" as="geometry">
                        <mxRectangle width="91.46007283528645" height="31" as="alternateBounds"/>
                    </mxGeometry>
                </mxCell>
                <mxCell id="60" style="shape=partialRectangle;connectable=0;fillColor=none;top=0;left=0;bottom=0;right=0;align=left;spacingLeft=6;overflow=hidden;strokeColor=default;fontColor=#000000;" parent="57" vertex="1">
                    <mxGeometry x="180" width="140.48438517252606" height="31" as="geometry">
                        <mxRectangle width="140.48438517252606" height="31" as="alternateBounds"/>
                    </mxGeometry>
                </mxCell>
                <mxCell id="38" value="" style="shape=tableRow;horizontal=0;startSize=0;swimlaneHead=0;swimlaneBody=0;fillColor=none;collapsible=0;dropTarget=0;points=[[0,0.5],[1,0.5]];portConstraint=eastwest;top=0;left=0;right=0;bottom=0;" parent="2" vertex="1">
                    <mxGeometry y="234" width="320.48438517252606" height="24" as="geometry"/>
                </mxCell>
                <mxCell id="39" value="updated_by" style="shape=partialRectangle;connectable=0;fillColor=none;top=0;left=0;bottom=0;right=0;editable=1;overflow=hidden;strokeColor=default;fontColor=#000000;" parent="38" vertex="1">
                    <mxGeometry width="88.53992716471355" height="24" as="geometry">
                        <mxRectangle width="88.53992716471355" height="24" as="alternateBounds"/>
                    </mxGeometry>
                </mxCell>
                <mxCell id="40" value="bigint" style="shape=partialRectangle;connectable=0;fillColor=none;top=0;left=0;bottom=0;right=0;align=left;spacingLeft=6;overflow=hidden;strokeColor=default;fontColor=#000000;" parent="38" vertex="1">
                    <mxGeometry x="88.53992716471355" width="91.46007283528645" height="24" as="geometry">
                        <mxRectangle width="91.46007283528645" height="24" as="alternateBounds"/>
                    </mxGeometry>
                </mxCell>
                <mxCell id="50" style="shape=partialRectangle;connectable=0;fillColor=none;top=0;left=0;bottom=0;right=0;align=left;spacingLeft=6;overflow=hidden;strokeColor=default;fontColor=#000000;" parent="38" vertex="1">
                    <mxGeometry x="180" width="140.48438517252606" height="24" as="geometry">
                        <mxRectangle width="140.48438517252606" height="24" as="alternateBounds"/>
                    </mxGeometry>
                </mxCell>
                <mxCell id="102" value="nullable" style="shape=partialRectangle;connectable=0;fillColor=none;top=0;left=0;bottom=0;right=0;align=left;spacingLeft=6;overflow=hidden;strokeColor=default;fontColor=#000000;" parent="1" vertex="1">
                    <mxGeometry x="194" y="306" width="140.48438517252606" height="35" as="geometry">
                        <mxRectangle width="140.48438517252606" height="35" as="alternateBounds"/>
                    </mxGeometry>
                </mxCell>
                <mxCell id="103" value="nullable" style="shape=partialRectangle;connectable=0;fillColor=none;top=0;left=0;bottom=0;right=0;align=left;spacingLeft=6;overflow=hidden;strokeColor=default;fontColor=#000000;" parent="1" vertex="1">
                    <mxGeometry x="191" y="338" width="140.48438517252606" height="35" as="geometry">
                        <mxRectangle width="140.48438517252606" height="35" as="alternateBounds"/>
                    </mxGeometry>
                </mxCell>
                <mxCell id="104" value="Users" style="shape=table;startSize=29;container=1;collapsible=1;childLayout=tableLayout;fixedRows=1;rowLines=0;fontStyle=1;align=center;resizeLast=1;fillColor=default;" parent="1" vertex="1">
                    <mxGeometry x="25" y="82" width="320.48438517252606" height="296.005864461263" as="geometry">
                        <mxRectangle x="25" y="132" width="65" height="30" as="alternateBounds"/>
                    </mxGeometry>
                </mxCell>
                <mxCell id="105" style="shape=tableRow;horizontal=0;startSize=0;swimlaneHead=0;swimlaneBody=0;fillColor=none;collapsible=0;dropTarget=0;points=[[0,0.5],[1,0.5]];portConstraint=eastwest;top=0;left=0;right=0;bottom=0;" parent="104" vertex="1">
                    <mxGeometry y="29" width="320.48438517252606" height="35" as="geometry"/>
                </mxCell>
                <mxCell id="106" value="id" style="shape=partialRectangle;connectable=0;fillColor=none;top=0;left=0;bottom=0;right=0;editable=1;overflow=hidden;strokeColor=default;fontColor=#000000;" parent="105" vertex="1">
                    <mxGeometry width="101.87326049804686" height="35" as="geometry">
                        <mxRectangle width="101.87326049804686" height="35" as="alternateBounds"/>
                    </mxGeometry>
                </mxCell>
                <mxCell id="107" value="bigint" style="shape=partialRectangle;connectable=0;fillColor=none;top=0;left=0;bottom=0;right=0;align=left;spacingLeft=6;overflow=hidden;strokeColor=default;fontColor=#000000;" parent="105" vertex="1">
                    <mxGeometry x="101.87326049804686" width="78.12673950195314" height="35" as="geometry">
                        <mxRectangle width="78.12673950195314" height="35" as="alternateBounds"/>
                    </mxGeometry>
                </mxCell>
                <mxCell id="108" value="AUTO_INCREMENT&#10;PRIMARY" style="shape=partialRectangle;connectable=0;fillColor=none;top=0;left=0;bottom=0;right=0;align=left;spacingLeft=6;overflow=hidden;strokeColor=default;fontColor=#000000;" parent="105" vertex="1">
                    <mxGeometry x="180" width="140.48438517252606" height="35" as="geometry">
                        <mxRectangle width="140.48438517252606" height="35" as="alternateBounds"/>
                    </mxGeometry>
                </mxCell>
                <mxCell id="109" value="" style="shape=tableRow;horizontal=0;startSize=0;swimlaneHead=0;swimlaneBody=0;fillColor=none;collapsible=0;dropTarget=0;points=[[0,0.5],[1,0.5]];portConstraint=eastwest;top=0;left=0;right=0;bottom=0;" parent="104" vertex="1">
                    <mxGeometry y="64" width="320.48438517252606" height="23" as="geometry"/>
                </mxCell>
                <mxCell id="110" value="name" style="shape=partialRectangle;connectable=0;fillColor=none;top=0;left=0;bottom=0;right=0;editable=1;overflow=hidden;strokeColor=default;fontColor=#000000;" parent="109" vertex="1">
                    <mxGeometry width="101.87326049804686" height="23" as="geometry">
                        <mxRectangle width="101.87326049804686" height="23" as="alternateBounds"/>
                    </mxGeometry>
                </mxCell>
                <mxCell id="111" value="varchar" style="shape=partialRectangle;connectable=0;fillColor=none;top=0;left=0;bottom=0;right=0;align=left;spacingLeft=6;overflow=hidden;strokeColor=default;fontColor=#000000;" parent="109" vertex="1">
                    <mxGeometry x="101.87326049804686" width="78.12673950195314" height="23" as="geometry">
                        <mxRectangle width="78.12673950195314" height="23" as="alternateBounds"/>
                    </mxGeometry>
                </mxCell>
                <mxCell id="112" style="shape=partialRectangle;connectable=0;fillColor=none;top=0;left=0;bottom=0;right=0;align=left;spacingLeft=6;overflow=hidden;strokeColor=default;fontColor=#000000;" parent="109" vertex="1">
                    <mxGeometry x="180" width="140.48438517252606" height="23" as="geometry">
                        <mxRectangle width="140.48438517252606" height="23" as="alternateBounds"/>
                    </mxGeometry>
                </mxCell>
                <mxCell id="113" value="" style="shape=tableRow;horizontal=0;startSize=0;swimlaneHead=0;swimlaneBody=0;fillColor=none;collapsible=0;dropTarget=0;points=[[0,0.5],[1,0.5]];portConstraint=eastwest;top=0;left=0;right=0;bottom=0;" parent="104" vertex="1">
                    <mxGeometry y="87" width="320.48438517252606" height="20" as="geometry"/>
                </mxCell>
                <mxCell id="114" value="email" style="shape=partialRectangle;connectable=0;fillColor=none;top=0;left=0;bottom=0;right=0;editable=1;overflow=hidden;strokeColor=default;fontColor=#000000;" parent="113" vertex="1">
                    <mxGeometry width="101.87326049804686" height="20" as="geometry">
                        <mxRectangle width="101.87326049804686" height="20" as="alternateBounds"/>
                    </mxGeometry>
                </mxCell>
                <mxCell id="115" value="varchar" style="shape=partialRectangle;connectable=0;fillColor=none;top=0;left=0;bottom=0;right=0;align=left;spacingLeft=6;overflow=hidden;strokeColor=default;fontColor=#000000;" parent="113" vertex="1">
                    <mxGeometry x="101.87326049804686" width="78.12673950195314" height="20" as="geometry">
                        <mxRectangle width="78.12673950195314" height="20" as="alternateBounds"/>
                    </mxGeometry>
                </mxCell>
                <mxCell id="116" value="PRIMARY" style="shape=partialRectangle;connectable=0;fillColor=none;top=0;left=0;bottom=0;right=0;align=left;spacingLeft=6;overflow=hidden;strokeColor=default;fontColor=#000000;" parent="113" vertex="1">
                    <mxGeometry x="180" width="140.48438517252606" height="20" as="geometry">
                        <mxRectangle width="140.48438517252606" height="20" as="alternateBounds"/>
                    </mxGeometry>
                </mxCell>
                <mxCell id="117" value="" style="shape=tableRow;horizontal=0;startSize=0;swimlaneHead=0;swimlaneBody=0;fillColor=none;collapsible=0;dropTarget=0;points=[[0,0.5],[1,0.5]];portConstraint=eastwest;top=0;left=0;right=0;bottom=0;" parent="104" vertex="1">
                    <mxGeometry y="107" width="320.48438517252606" height="35" as="geometry"/>
                </mxCell>
                <mxCell id="118" value="avatar_path" style="shape=partialRectangle;connectable=0;fillColor=none;top=0;left=0;bottom=0;right=0;editable=1;overflow=hidden;strokeColor=default;fontColor=#000000;" parent="117" vertex="1">
                    <mxGeometry width="101.87326049804686" height="35" as="geometry">
                        <mxRectangle width="101.87326049804686" height="35" as="alternateBounds"/>
                    </mxGeometry>
                </mxCell>
                <mxCell id="119" value="varchar" style="shape=partialRectangle;connectable=0;fillColor=none;top=0;left=0;bottom=0;right=0;align=left;spacingLeft=6;overflow=hidden;strokeColor=default;fontColor=#000000;" parent="117" vertex="1">
                    <mxGeometry x="101.87326049804686" width="78.12673950195314" height="35" as="geometry">
                        <mxRectangle width="78.12673950195314" height="35" as="alternateBounds"/>
                    </mxGeometry>
                </mxCell>
                <mxCell id="120" value="nullable" style="shape=partialRectangle;connectable=0;fillColor=none;top=0;left=0;bottom=0;right=0;align=left;spacingLeft=6;overflow=hidden;strokeColor=default;fontColor=#000000;" parent="117" vertex="1">
                    <mxGeometry x="180" width="140.48438517252606" height="35" as="geometry">
                        <mxRectangle width="140.48438517252606" height="35" as="alternateBounds"/>
                    </mxGeometry>
                </mxCell>
                <mxCell id="121" value="" style="shape=tableRow;horizontal=0;startSize=0;swimlaneHead=0;swimlaneBody=0;fillColor=none;collapsible=0;dropTarget=0;points=[[0,0.5],[1,0.5]];portConstraint=eastwest;top=0;left=0;right=0;bottom=0;" parent="104" vertex="1">
                    <mxGeometry y="142" width="320.48438517252606" height="35" as="geometry"/>
                </mxCell>
                <mxCell id="122" value="avatar_url" style="shape=partialRectangle;connectable=0;fillColor=none;top=0;left=0;bottom=0;right=0;editable=1;overflow=hidden;strokeColor=default;fontColor=#000000;" parent="121" vertex="1">
                    <mxGeometry width="101.87326049804686" height="35" as="geometry">
                        <mxRectangle width="101.87326049804686" height="35" as="alternateBounds"/>
                    </mxGeometry>
                </mxCell>
                <mxCell id="123" value="varchar" style="shape=partialRectangle;connectable=0;fillColor=none;top=0;left=0;bottom=0;right=0;align=left;spacingLeft=6;overflow=hidden;strokeColor=default;fontColor=#000000;" parent="121" vertex="1">
                    <mxGeometry x="101.87326049804686" width="78.12673950195314" height="35" as="geometry">
                        <mxRectangle width="78.12673950195314" height="35" as="alternateBounds"/>
                    </mxGeometry>
                </mxCell>
                <mxCell id="124" value="nullable" style="shape=partialRectangle;connectable=0;fillColor=none;top=0;left=0;bottom=0;right=0;align=left;spacingLeft=6;overflow=hidden;strokeColor=default;fontColor=#000000;" parent="121" vertex="1">
                    <mxGeometry x="180" width="140.48438517252606" height="35" as="geometry">
                        <mxRectangle width="140.48438517252606" height="35" as="alternateBounds"/>
                    </mxGeometry>
                </mxCell>
                <mxCell id="125" value="" style="shape=tableRow;horizontal=0;startSize=0;swimlaneHead=0;swimlaneBody=0;fillColor=none;collapsible=0;dropTarget=0;points=[[0,0.5],[1,0.5]];portConstraint=eastwest;top=0;left=0;right=0;bottom=0;" parent="104" vertex="1">
                    <mxGeometry y="177" width="320.48438517252606" height="31" as="geometry"/>
                </mxCell>
                <mxCell id="126" value="email_verified_at" style="shape=partialRectangle;connectable=0;fillColor=none;top=0;left=0;bottom=0;right=0;editable=1;overflow=hidden;strokeColor=default;fontColor=#000000;" parent="125" vertex="1">
                    <mxGeometry width="101.87326049804686" height="31" as="geometry">
                        <mxRectangle width="101.87326049804686" height="31" as="alternateBounds"/>
                    </mxGeometry>
                </mxCell>
                <mxCell id="127" value="timestamp" style="shape=partialRectangle;connectable=0;fillColor=none;top=0;left=0;bottom=0;right=0;align=left;spacingLeft=6;overflow=hidden;strokeColor=default;fontColor=#000000;" parent="125" vertex="1">
                    <mxGeometry x="101.87326049804686" width="78.12673950195314" height="31" as="geometry">
                        <mxRectangle width="78.12673950195314" height="31" as="alternateBounds"/>
                    </mxGeometry>
                </mxCell>
                <mxCell id="128" value="nullable" style="shape=partialRectangle;connectable=0;fillColor=none;top=0;left=0;bottom=0;right=0;align=left;spacingLeft=6;overflow=hidden;strokeColor=default;fontColor=#000000;" parent="125" vertex="1">
                    <mxGeometry x="180" width="140.48438517252606" height="31" as="geometry">
                        <mxRectangle width="140.48438517252606" height="31" as="alternateBounds"/>
                    </mxGeometry>
                </mxCell>
                <mxCell id="137" value="" style="shape=tableRow;horizontal=0;startSize=0;swimlaneHead=0;swimlaneBody=0;fillColor=none;collapsible=0;dropTarget=0;points=[[0,0.5],[1,0.5]];portConstraint=eastwest;top=0;left=0;right=0;bottom=0;" parent="104" vertex="1">
                    <mxGeometry y="208" width="320.48438517252606" height="31" as="geometry"/>
                </mxCell>
                <mxCell id="138" value="password " style="shape=partialRectangle;connectable=0;fillColor=none;top=0;left=0;bottom=0;right=0;editable=1;overflow=hidden;strokeColor=default;fontColor=#000000;" parent="137" vertex="1">
                    <mxGeometry width="101.87326049804686" height="31" as="geometry">
                        <mxRectangle width="101.87326049804686" height="31" as="alternateBounds"/>
                    </mxGeometry>
                </mxCell>
                <mxCell id="139" value="varchar" style="shape=partialRectangle;connectable=0;fillColor=none;top=0;left=0;bottom=0;right=0;align=left;spacingLeft=6;overflow=hidden;strokeColor=default;fontColor=#000000;" parent="137" vertex="1">
                    <mxGeometry x="101.87326049804686" width="78.12673950195314" height="31" as="geometry">
                        <mxRectangle width="78.12673950195314" height="31" as="alternateBounds"/>
                    </mxGeometry>
                </mxCell>
                <mxCell id="140" value="" style="shape=partialRectangle;connectable=0;fillColor=none;top=0;left=0;bottom=0;right=0;align=left;spacingLeft=6;overflow=hidden;strokeColor=default;fontColor=#000000;" parent="137" vertex="1">
                    <mxGeometry x="180" width="140.48438517252606" height="31" as="geometry">
                        <mxRectangle width="140.48438517252606" height="31" as="alternateBounds"/>
                    </mxGeometry>
                </mxCell>
                <mxCell id="129" value="" style="shape=tableRow;horizontal=0;startSize=0;swimlaneHead=0;swimlaneBody=0;fillColor=none;collapsible=0;dropTarget=0;points=[[0,0.5],[1,0.5]];portConstraint=eastwest;top=0;left=0;right=0;bottom=0;" parent="104" vertex="1">
                    <mxGeometry y="239" width="320.48438517252606" height="25" as="geometry"/>
                </mxCell>
                <mxCell id="130" value="created_at" style="shape=partialRectangle;connectable=0;fillColor=none;top=0;left=0;bottom=0;right=0;editable=1;overflow=hidden;strokeColor=default;fontColor=#000000;" parent="129" vertex="1">
                    <mxGeometry width="101.87326049804686" height="25" as="geometry">
                        <mxRectangle width="101.87326049804686" height="25" as="alternateBounds"/>
                    </mxGeometry>
                </mxCell>
                <mxCell id="131" value="timestamp" style="shape=partialRectangle;connectable=0;fillColor=none;top=0;left=0;bottom=0;right=0;align=left;spacingLeft=6;overflow=hidden;strokeColor=default;fontColor=#000000;" parent="129" vertex="1">
                    <mxGeometry x="101.87326049804686" width="78.12673950195314" height="25" as="geometry">
                        <mxRectangle width="78.12673950195314" height="25" as="alternateBounds"/>
                    </mxGeometry>
                </mxCell>
                <mxCell id="132" style="shape=partialRectangle;connectable=0;fillColor=none;top=0;left=0;bottom=0;right=0;align=left;spacingLeft=6;overflow=hidden;strokeColor=default;fontColor=#000000;" parent="129" vertex="1">
                    <mxGeometry x="180" width="140.48438517252606" height="25" as="geometry">
                        <mxRectangle width="140.48438517252606" height="25" as="alternateBounds"/>
                    </mxGeometry>
                </mxCell>
                <mxCell id="133" value="" style="shape=tableRow;horizontal=0;startSize=0;swimlaneHead=0;swimlaneBody=0;fillColor=none;collapsible=0;dropTarget=0;points=[[0,0.5],[1,0.5]];portConstraint=eastwest;top=0;left=0;right=0;bottom=0;" parent="104" vertex="1">
                    <mxGeometry y="264" width="320.48438517252606" height="24" as="geometry"/>
                </mxCell>
                <mxCell id="134" value="updated_at" style="shape=partialRectangle;connectable=0;fillColor=none;top=0;left=0;bottom=0;right=0;editable=1;overflow=hidden;strokeColor=default;fontColor=#000000;" parent="133" vertex="1">
                    <mxGeometry width="101.87326049804686" height="24" as="geometry">
                        <mxRectangle width="101.87326049804686" height="24" as="alternateBounds"/>
                    </mxGeometry>
                </mxCell>
                <mxCell id="135" value="timestamp" style="shape=partialRectangle;connectable=0;fillColor=none;top=0;left=0;bottom=0;right=0;align=left;spacingLeft=6;overflow=hidden;strokeColor=default;fontColor=#000000;" parent="133" vertex="1">
                    <mxGeometry x="101.87326049804686" width="78.12673950195314" height="24" as="geometry">
                        <mxRectangle width="78.12673950195314" height="24" as="alternateBounds"/>
                    </mxGeometry>
                </mxCell>
                <mxCell id="136" style="shape=partialRectangle;connectable=0;fillColor=none;top=0;left=0;bottom=0;right=0;align=left;spacingLeft=6;overflow=hidden;strokeColor=default;fontColor=#000000;" parent="133" vertex="1">
                    <mxGeometry x="180" width="140.48438517252606" height="24" as="geometry">
                        <mxRectangle width="140.48438517252606" height="24" as="alternateBounds"/>
                    </mxGeometry>
                </mxCell>
                <mxCell id="175" value="Reviews" style="shape=table;startSize=29;container=1;collapsible=1;childLayout=tableLayout;fixedRows=1;rowLines=0;fontStyle=1;align=center;resizeLast=1;fillColor=default;" vertex="1" parent="1">
                    <mxGeometry x="375" y="38" width="320.48438517252606" height="337.96775817871094" as="geometry">
                        <mxRectangle x="25" y="132" width="65" height="30" as="alternateBounds"/>
                    </mxGeometry>
                </mxCell>
                <mxCell id="176" style="shape=tableRow;horizontal=0;startSize=0;swimlaneHead=0;swimlaneBody=0;fillColor=none;collapsible=0;dropTarget=0;points=[[0,0.5],[1,0.5]];portConstraint=eastwest;top=0;left=0;right=0;bottom=0;" vertex="1" parent="175">
                    <mxGeometry y="29" width="320.48438517252606" height="30" as="geometry"/>
                </mxCell>
                <mxCell id="177" value="id" style="shape=partialRectangle;connectable=0;fillColor=none;top=0;left=0;bottom=0;right=0;editable=1;overflow=hidden;strokeColor=default;fontColor=#000000;" vertex="1" parent="176">
                    <mxGeometry width="88.53992716471355" height="30" as="geometry">
                        <mxRectangle width="88.53992716471355" height="30" as="alternateBounds"/>
                    </mxGeometry>
                </mxCell>
                <mxCell id="178" value="bigint" style="shape=partialRectangle;connectable=0;fillColor=none;top=0;left=0;bottom=0;right=0;align=left;spacingLeft=6;overflow=hidden;strokeColor=default;fontColor=#000000;" vertex="1" parent="176">
                    <mxGeometry x="88.53992716471355" width="91.46007283528645" height="30" as="geometry">
                        <mxRectangle width="91.46007283528645" height="30" as="alternateBounds"/>
                    </mxGeometry>
                </mxCell>
                <mxCell id="179" value="AUTO_INCREMENT&#10;PRIMARY" style="shape=partialRectangle;connectable=0;fillColor=none;top=0;left=0;bottom=0;right=0;align=left;spacingLeft=6;overflow=hidden;strokeColor=default;fontColor=#000000;" vertex="1" parent="176">
                    <mxGeometry x="180" width="140.48438517252606" height="30" as="geometry">
                        <mxRectangle width="140.48438517252606" height="30" as="alternateBounds"/>
                    </mxGeometry>
                </mxCell>
                <mxCell id="180" value="" style="shape=tableRow;horizontal=0;startSize=0;swimlaneHead=0;swimlaneBody=0;fillColor=none;collapsible=0;dropTarget=0;points=[[0,0.5],[1,0.5]];portConstraint=eastwest;top=0;left=0;right=0;bottom=0;" vertex="1" parent="175">
                    <mxGeometry y="59" width="320.48438517252606" height="23" as="geometry"/>
                </mxCell>
                <mxCell id="181" value="shop_id" style="shape=partialRectangle;connectable=0;fillColor=none;top=0;left=0;bottom=0;right=0;editable=1;overflow=hidden;strokeColor=default;fontColor=#000000;" vertex="1" parent="180">
                    <mxGeometry width="88.53992716471355" height="23" as="geometry">
                        <mxRectangle width="88.53992716471355" height="23" as="alternateBounds"/>
                    </mxGeometry>
                </mxCell>
                <mxCell id="182" value="bigint" style="shape=partialRectangle;connectable=0;fillColor=none;top=0;left=0;bottom=0;right=0;align=left;spacingLeft=6;overflow=hidden;strokeColor=default;fontColor=#000000;" vertex="1" parent="180">
                    <mxGeometry x="88.53992716471355" width="91.46007283528645" height="23" as="geometry">
                        <mxRectangle width="91.46007283528645" height="23" as="alternateBounds"/>
                    </mxGeometry>
                </mxCell>
                <mxCell id="183" value="foreign_id" style="shape=partialRectangle;connectable=0;fillColor=none;top=0;left=0;bottom=0;right=0;align=left;spacingLeft=6;overflow=hidden;strokeColor=default;fontColor=#000000;" vertex="1" parent="180">
                    <mxGeometry x="180" width="140.48438517252606" height="23" as="geometry">
                        <mxRectangle width="140.48438517252606" height="23" as="alternateBounds"/>
                    </mxGeometry>
                </mxCell>
                <mxCell id="184" value="" style="shape=tableRow;horizontal=0;startSize=0;swimlaneHead=0;swimlaneBody=0;fillColor=none;collapsible=0;dropTarget=0;points=[[0,0.5],[1,0.5]];portConstraint=eastwest;top=0;left=0;right=0;bottom=0;" vertex="1" parent="175">
                    <mxGeometry y="82" width="320.48438517252606" height="20" as="geometry"/>
                </mxCell>
                <mxCell id="185" value="user_id" style="shape=partialRectangle;connectable=0;fillColor=none;top=0;left=0;bottom=0;right=0;editable=1;overflow=hidden;strokeColor=default;fontColor=#000000;" vertex="1" parent="184">
                    <mxGeometry width="88.53992716471355" height="20" as="geometry">
                        <mxRectangle width="88.53992716471355" height="20" as="alternateBounds"/>
                    </mxGeometry>
                </mxCell>
                <mxCell id="186" value="bigint" style="shape=partialRectangle;connectable=0;fillColor=none;top=0;left=0;bottom=0;right=0;align=left;spacingLeft=6;overflow=hidden;strokeColor=default;fontColor=#000000;" vertex="1" parent="184">
                    <mxGeometry x="88.53992716471355" width="91.46007283528645" height="20" as="geometry">
                        <mxRectangle width="91.46007283528645" height="20" as="alternateBounds"/>
                    </mxGeometry>
                </mxCell>
                <mxCell id="187" value="foreign_id" style="shape=partialRectangle;connectable=0;fillColor=none;top=0;left=0;bottom=0;right=0;align=left;spacingLeft=6;overflow=hidden;strokeColor=default;fontColor=#000000;" vertex="1" parent="184">
                    <mxGeometry x="180" width="140.48438517252606" height="20" as="geometry">
                        <mxRectangle width="140.48438517252606" height="20" as="alternateBounds"/>
                    </mxGeometry>
                </mxCell>
                <mxCell id="188" value="" style="shape=tableRow;horizontal=0;startSize=0;swimlaneHead=0;swimlaneBody=0;fillColor=none;collapsible=0;dropTarget=0;points=[[0,0.5],[1,0.5]];portConstraint=eastwest;top=0;left=0;right=0;bottom=0;" vertex="1" parent="175">
                    <mxGeometry y="102" width="320.48438517252606" height="35" as="geometry"/>
                </mxCell>
                <mxCell id="189" value="comment" style="shape=partialRectangle;connectable=0;fillColor=none;top=0;left=0;bottom=0;right=0;editable=1;overflow=hidden;strokeColor=default;fontColor=#000000;" vertex="1" parent="188">
                    <mxGeometry width="88.53992716471355" height="35" as="geometry">
                        <mxRectangle width="88.53992716471355" height="35" as="alternateBounds"/>
                    </mxGeometry>
                </mxCell>
                <mxCell id="190" value="text" style="shape=partialRectangle;connectable=0;fillColor=none;top=0;left=0;bottom=0;right=0;align=left;spacingLeft=6;overflow=hidden;strokeColor=default;fontColor=#000000;" vertex="1" parent="188">
                    <mxGeometry x="88.53992716471355" width="91.46007283528645" height="35" as="geometry">
                        <mxRectangle width="91.46007283528645" height="35" as="alternateBounds"/>
                    </mxGeometry>
                </mxCell>
                <mxCell id="191" value="nullable" style="shape=partialRectangle;connectable=0;fillColor=none;top=0;left=0;bottom=0;right=0;align=left;spacingLeft=6;overflow=hidden;strokeColor=default;fontColor=#000000;" vertex="1" parent="188">
                    <mxGeometry x="180" width="140.48438517252606" height="35" as="geometry">
                        <mxRectangle width="140.48438517252606" height="35" as="alternateBounds"/>
                    </mxGeometry>
                </mxCell>
                <mxCell id="192" value="" style="shape=tableRow;horizontal=0;startSize=0;swimlaneHead=0;swimlaneBody=0;fillColor=none;collapsible=0;dropTarget=0;points=[[0,0.5],[1,0.5]];portConstraint=eastwest;top=0;left=0;right=0;bottom=0;" vertex="1" parent="175">
                    <mxGeometry y="137" width="320.48438517252606" height="35" as="geometry"/>
                </mxCell>
                <mxCell id="193" value="created_at" style="shape=partialRectangle;connectable=0;fillColor=none;top=0;left=0;bottom=0;right=0;editable=1;overflow=hidden;strokeColor=default;fontColor=#000000;" vertex="1" parent="192">
                    <mxGeometry width="88.53992716471355" height="35" as="geometry">
                        <mxRectangle width="88.53992716471355" height="35" as="alternateBounds"/>
                    </mxGeometry>
                </mxCell>
                <mxCell id="194" value="timestamp" style="shape=partialRectangle;connectable=0;fillColor=none;top=0;left=0;bottom=0;right=0;align=left;spacingLeft=6;overflow=hidden;strokeColor=default;fontColor=#000000;" vertex="1" parent="192">
                    <mxGeometry x="88.53992716471355" width="91.46007283528645" height="35" as="geometry">
                        <mxRectangle width="91.46007283528645" height="35" as="alternateBounds"/>
                    </mxGeometry>
                </mxCell>
                <mxCell id="195" value="nullable" style="shape=partialRectangle;connectable=0;fillColor=none;top=0;left=0;bottom=0;right=0;align=left;spacingLeft=6;overflow=hidden;strokeColor=default;fontColor=#000000;" vertex="1" parent="192">
                    <mxGeometry x="180" width="140.48438517252606" height="35" as="geometry">
                        <mxRectangle width="140.48438517252606" height="35" as="alternateBounds"/>
                    </mxGeometry>
                </mxCell>
                <mxCell id="196" value="" style="shape=tableRow;horizontal=0;startSize=0;swimlaneHead=0;swimlaneBody=0;fillColor=none;collapsible=0;dropTarget=0;points=[[0,0.5],[1,0.5]];portConstraint=eastwest;top=0;left=0;right=0;bottom=0;" vertex="1" parent="175">
                    <mxGeometry y="172" width="320.48438517252606" height="31" as="geometry"/>
                </mxCell>
                <mxCell id="197" value="updated_at" style="shape=partialRectangle;connectable=0;fillColor=none;top=0;left=0;bottom=0;right=0;editable=1;overflow=hidden;strokeColor=default;fontColor=#000000;" vertex="1" parent="196">
                    <mxGeometry width="88.53992716471355" height="31" as="geometry">
                        <mxRectangle width="88.53992716471355" height="31" as="alternateBounds"/>
                    </mxGeometry>
                </mxCell>
                <mxCell id="198" value="timestamp" style="shape=partialRectangle;connectable=0;fillColor=none;top=0;left=0;bottom=0;right=0;align=left;spacingLeft=6;overflow=hidden;strokeColor=default;fontColor=#000000;" vertex="1" parent="196">
                    <mxGeometry x="88.53992716471355" width="91.46007283528645" height="31" as="geometry">
                        <mxRectangle width="91.46007283528645" height="31" as="alternateBounds"/>
                    </mxGeometry>
                </mxCell>
                <mxCell id="199" value="nullable" style="shape=partialRectangle;connectable=0;fillColor=none;top=0;left=0;bottom=0;right=0;align=left;spacingLeft=6;overflow=hidden;strokeColor=default;fontColor=#000000;" vertex="1" parent="196">
                    <mxGeometry x="180" width="140.48438517252606" height="31" as="geometry">
                        <mxRectangle width="140.48438517252606" height="31" as="alternateBounds"/>
                    </mxGeometry>
                </mxCell>
                <mxCell id="200" value="" style="shape=tableRow;horizontal=0;startSize=0;swimlaneHead=0;swimlaneBody=0;fillColor=none;collapsible=0;dropTarget=0;points=[[0,0.5],[1,0.5]];portConstraint=eastwest;top=0;left=0;right=0;bottom=0;" vertex="1" parent="175">
                    <mxGeometry y="203" width="320.48438517252606" height="31" as="geometry"/>
                </mxCell>
                <mxCell id="201" value="anonymous" style="shape=partialRectangle;connectable=0;fillColor=none;top=0;left=0;bottom=0;right=0;editable=1;overflow=hidden;strokeColor=default;fontColor=#000000;" vertex="1" parent="200">
                    <mxGeometry width="88.53992716471355" height="31" as="geometry">
                        <mxRectangle width="88.53992716471355" height="31" as="alternateBounds"/>
                    </mxGeometry>
                </mxCell>
                <mxCell id="202" value="bigint" style="shape=partialRectangle;connectable=0;fillColor=none;top=0;left=0;bottom=0;right=0;align=left;spacingLeft=6;overflow=hidden;strokeColor=default;fontColor=#000000;" vertex="1" parent="200">
                    <mxGeometry x="88.53992716471355" width="91.46007283528645" height="31" as="geometry">
                        <mxRectangle width="91.46007283528645" height="31" as="alternateBounds"/>
                    </mxGeometry>
                </mxCell>
                <mxCell id="203" style="shape=partialRectangle;connectable=0;fillColor=none;top=0;left=0;bottom=0;right=0;align=left;spacingLeft=6;overflow=hidden;strokeColor=default;fontColor=#000000;" vertex="1" parent="200">
                    <mxGeometry x="180" width="140.48438517252606" height="31" as="geometry">
                        <mxRectangle width="140.48438517252606" height="31" as="alternateBounds"/>
                    </mxGeometry>
                </mxCell>
                <mxCell id="204" value="" style="shape=tableRow;horizontal=0;startSize=0;swimlaneHead=0;swimlaneBody=0;fillColor=none;collapsible=0;dropTarget=0;points=[[0,0.5],[1,0.5]];portConstraint=eastwest;top=0;left=0;right=0;bottom=0;" vertex="1" parent="175">
                    <mxGeometry y="234" width="320.48438517252606" height="24" as="geometry"/>
                </mxCell>
                <mxCell id="205" value="teaching_rating" style="shape=partialRectangle;connectable=0;fillColor=none;top=0;left=0;bottom=0;right=0;editable=1;overflow=hidden;strokeColor=default;fontColor=#000000;" vertex="1" parent="204">
                    <mxGeometry width="88.53992716471355" height="24" as="geometry">
                        <mxRectangle width="88.53992716471355" height="24" as="alternateBounds"/>
                    </mxGeometry>
                </mxCell>
                <mxCell id="206" value="int" style="shape=partialRectangle;connectable=0;fillColor=none;top=0;left=0;bottom=0;right=0;align=left;spacingLeft=6;overflow=hidden;strokeColor=default;fontColor=#000000;" vertex="1" parent="204">
                    <mxGeometry x="88.53992716471355" width="91.46007283528645" height="24" as="geometry">
                        <mxRectangle width="91.46007283528645" height="24" as="alternateBounds"/>
                    </mxGeometry>
                </mxCell>
                <mxCell id="207" style="shape=partialRectangle;connectable=0;fillColor=none;top=0;left=0;bottom=0;right=0;align=left;spacingLeft=6;overflow=hidden;strokeColor=default;fontColor=#000000;" vertex="1" parent="204">
                    <mxGeometry x="180" width="140.48438517252606" height="24" as="geometry">
                        <mxRectangle width="140.48438517252606" height="24" as="alternateBounds"/>
                    </mxGeometry>
                </mxCell>
                <mxCell id="208" value="" style="shape=tableRow;horizontal=0;startSize=0;swimlaneHead=0;swimlaneBody=0;fillColor=none;collapsible=0;dropTarget=0;points=[[0,0.5],[1,0.5]];portConstraint=eastwest;top=0;left=0;right=0;bottom=0;" vertex="1" parent="175">
                    <mxGeometry y="258" width="320.48438517252606" height="24" as="geometry"/>
                </mxCell>
                <mxCell id="209" value="study_rating" style="shape=partialRectangle;connectable=0;fillColor=none;top=0;left=0;bottom=0;right=0;editable=1;overflow=hidden;strokeColor=default;fontColor=#000000;" vertex="1" parent="208">
                    <mxGeometry width="88.53992716471355" height="24" as="geometry">
                        <mxRectangle width="88.53992716471355" height="24" as="alternateBounds"/>
                    </mxGeometry>
                </mxCell>
                <mxCell id="210" value="int" style="shape=partialRectangle;connectable=0;fillColor=none;top=0;left=0;bottom=0;right=0;align=left;spacingLeft=6;overflow=hidden;strokeColor=default;fontColor=#000000;" vertex="1" parent="208">
                    <mxGeometry x="88.53992716471355" width="91.46007283528645" height="24" as="geometry">
                        <mxRectangle width="91.46007283528645" height="24" as="alternateBounds"/>
                    </mxGeometry>
                </mxCell>
                <mxCell id="211" style="shape=partialRectangle;connectable=0;fillColor=none;top=0;left=0;bottom=0;right=0;align=left;spacingLeft=6;overflow=hidden;strokeColor=default;fontColor=#000000;" vertex="1" parent="208">
                    <mxGeometry x="180" width="140.48438517252606" height="24" as="geometry">
                        <mxRectangle width="140.48438517252606" height="24" as="alternateBounds"/>
                    </mxGeometry>
                </mxCell>
                <mxCell id="212" value="" style="shape=tableRow;horizontal=0;startSize=0;swimlaneHead=0;swimlaneBody=0;fillColor=none;collapsible=0;dropTarget=0;points=[[0,0.5],[1,0.5]];portConstraint=eastwest;top=0;left=0;right=0;bottom=0;" vertex="1" parent="175">
                    <mxGeometry y="282" width="320.48438517252606" height="24" as="geometry"/>
                </mxCell>
                <mxCell id="213" value="facility_rating" style="shape=partialRectangle;connectable=0;fillColor=none;top=0;left=0;bottom=0;right=0;editable=1;overflow=hidden;strokeColor=default;fontColor=#000000;" vertex="1" parent="212">
                    <mxGeometry width="88.53992716471355" height="24" as="geometry">
                        <mxRectangle width="88.53992716471355" height="24" as="alternateBounds"/>
                    </mxGeometry>
                </mxCell>
                <mxCell id="214" value="int" style="shape=partialRectangle;connectable=0;fillColor=none;top=0;left=0;bottom=0;right=0;align=left;spacingLeft=6;overflow=hidden;strokeColor=default;fontColor=#000000;" vertex="1" parent="212">
                    <mxGeometry x="88.53992716471355" width="91.46007283528645" height="24" as="geometry">
                        <mxRectangle width="91.46007283528645" height="24" as="alternateBounds"/>
                    </mxGeometry>
                </mxCell>
                <mxCell id="215" style="shape=partialRectangle;connectable=0;fillColor=none;top=0;left=0;bottom=0;right=0;align=left;spacingLeft=6;overflow=hidden;strokeColor=default;fontColor=#000000;" vertex="1" parent="212">
                    <mxGeometry x="180" width="140.48438517252606" height="24" as="geometry">
                        <mxRectangle width="140.48438517252606" height="24" as="alternateBounds"/>
                    </mxGeometry>
                </mxCell>
                <mxCell id="216" value="" style="shape=tableRow;horizontal=0;startSize=0;swimlaneHead=0;swimlaneBody=0;fillColor=none;collapsible=0;dropTarget=0;points=[[0,0.5],[1,0.5]];portConstraint=eastwest;top=0;left=0;right=0;bottom=0;" vertex="1" parent="175">
                    <mxGeometry y="306" width="320.48438517252606" height="24" as="geometry"/>
                </mxCell>
                <mxCell id="217" value="cost_rating" style="shape=partialRectangle;connectable=0;fillColor=none;top=0;left=0;bottom=0;right=0;editable=1;overflow=hidden;strokeColor=default;fontColor=#000000;" vertex="1" parent="216">
                    <mxGeometry width="88.53992716471355" height="24" as="geometry">
                        <mxRectangle width="88.53992716471355" height="24" as="alternateBounds"/>
                    </mxGeometry>
                </mxCell>
                <mxCell id="218" value="int" style="shape=partialRectangle;connectable=0;fillColor=none;top=0;left=0;bottom=0;right=0;align=left;spacingLeft=6;overflow=hidden;strokeColor=default;fontColor=#000000;" vertex="1" parent="216">
                    <mxGeometry x="88.53992716471355" width="91.46007283528645" height="24" as="geometry">
                        <mxRectangle width="91.46007283528645" height="24" as="alternateBounds"/>
                    </mxGeometry>
                </mxCell>
                <mxCell id="219" style="shape=partialRectangle;connectable=0;fillColor=none;top=0;left=0;bottom=0;right=0;align=left;spacingLeft=6;overflow=hidden;strokeColor=default;fontColor=#000000;" vertex="1" parent="216">
                    <mxGeometry x="180" width="140.48438517252606" height="24" as="geometry">
                        <mxRectangle width="140.48438517252606" height="24" as="alternateBounds"/>
                    </mxGeometry>
                </mxCell>
                <mxCell id="224" style="edgeStyle=elbowEdgeStyle;html=1;exitX=1;exitY=0.5;exitDx=0;exitDy=0;entryX=0;entryY=0.5;entryDx=0;entryDy=0;endArrow=ERzeroToMany;endFill=0;strokeColor=#000000;startArrow=ERone;startFill=0;" edge="1" parent="1" source="105" target="180">
                    <mxGeometry relative="1" as="geometry"/>
                </mxCell>
            </root>
        </mxGraphModel>
    </diagram>
</mxfile>